<?xml version="1.0" standalone="no"?>
<!DOCTYPE svg PUBLIC "-//W3C//DTD SVG 20010904//EN"
 "http://www.w3.org/TR/2001/REC-SVG-20010904/DTD/svg10.dtd">
<svg version="1.0" xmlns="http://www.w3.org/2000/svg"
 width="700.000000pt" height="700.000000pt" viewBox="0 0 700.000000 700.000000"
 preserveAspectRatio="xMidYMid meet">
<metadata>
Created by potrace 1.11, written by Peter Selinger 2001-2013
</metadata>
<g transform="translate(0.000000,700.000000) scale(0.100000,-0.100000)"
fill="#000000" stroke="none">
<path d="M3340 6929 c-1545 -68 -2861 -1176 -3194 -2689 -60 -275 -70 -378
-70 -740 0 -362 10 -465 70 -740 279 -1265 1261 -2277 2513 -2590 412 -103
870 -130 1286 -76 835 110 1607 525 2154 1161 582 676 878 1540 830 2423 -40
741 -291 1395 -763 1987 -158 198 -448 471 -671 631 -523 376 -1183 607 -1800
630 -77 2 -153 6 -170 7 -16 2 -100 0 -185 -4z"/>
</g>
</svg>
