<?xml version="1.0" standalone="no"?>
<!DOCTYPE svg PUBLIC "-//W3C//DTD SVG 20010904//EN"
 "http://www.w3.org/TR/2001/REC-SVG-20010904/DTD/svg10.dtd">
<svg version="1.0" xmlns="http://www.w3.org/2000/svg"
 width="700.000000pt" height="700.000000pt" viewBox="0 0 700.000000 700.000000"
 preserveAspectRatio="xMidYMid meet">
<metadata>
Created by potrace 1.11, written by Peter Selinger 2001-2013
</metadata>
<g transform="translate(0.000000,700.000000) scale(0.100000,-0.100000)"
fill="#000000" stroke="none">
<path d="M3280 6994 c-19 -2 -87 -9 -150 -15 -472 -44 -1012 -224 -1424 -473
-954 -579 -1565 -1535 -1688 -2641 -17 -155 -17 -575 0 -730 95 -853 476
-1614 1102 -2199 547 -512 1253 -833 2015 -918 155 -17 575 -17 730 0 1385
154 2538 1088 2963 2402 119 369 167 676 167 1080 0 262 -12 404 -51 620 -139
757 -499 1416 -1064 1944 -536 502 -1224 820 -1970 912 -117 15 -553 27 -630
18z m-770 -3412 c349 -1164 647 -2159 662 -2209 l29 -93 299 0 299 0 19 63
c11 34 309 1027 663 2207 353 1180 643 2146 644 2147 0 1 79 -21 175 -50 125
-38 175 -57 174 -68 -1 -8 -315 -1061 -700 -2341 l-698 -2328 -576 0 -576 0
-698 2328 c-385 1280 -699 2334 -700 2341 -1 11 48 30 169 67 94 29 172 53
175 53 3 0 291 -952 640 -2117z"/>
</g>
</svg>
